<svg width="22.000000" height="22.000000" viewBox="0 0 22 22" fill="none" xmlns="http://www.w3.org/2000/svg" xmlns:xlink="http://www.w3.org/1999/xlink">
	<desc>
			Created with Pixso.
	</desc>
	<defs/>
	<path id="Vector" d="M11 6C8.23 6 6 8.23 6 11C6 13.76 8.23 16 11 16C13.76 16 16 13.76 16 11C16 8.23 13.76 6 11 6ZM1 12L3 12C3.54 12 4 11.55 4 11C4 10.45 3.54 10 3 10L1 10C0.45 10 0 10.45 0 11C0 11.55 0.45 12 1 12ZM19 12L21 12C21.55 12 22 11.55 22 11C22 10.45 21.55 10 21 10L19 10C18.45 10 18 10.45 18 11C18 11.55 18.45 12 19 12ZM10 1L10 3C10 3.55 10.45 4 11 4C11.55 4 12 3.55 12 3L12 1C12 0.44 11.55 0 11 0C10.45 0 10 0.44 10 1ZM10 19L10 21C10 21.55 10.45 22 11 22C11.55 22 12 21.55 12 21L12 19C12 18.45 11.55 18 11 18C10.45 18 10 18.45 10 19ZM4.98 3.58C4.59 3.18 3.96 3.18 3.58 3.58C3.19 3.96 3.19 4.61 3.58 4.98L4.64 6.05C5.03 6.43 5.66 6.43 6.04 6.05C6.42 5.65 6.44 5.02 6.04 4.63L4.98 3.58ZM17.36 15.95C16.96 15.56 16.33 15.56 15.95 15.95C15.56 16.34 15.56 16.98 15.95 17.36L17.01 18.41C17.4 18.81 18.04 18.81 18.42 18.41C18.81 18.03 18.81 17.38 18.42 17.01L17.36 15.95ZM18.42 4.98C18.81 4.6 18.81 3.95 18.42 3.58C18.03 3.18 17.39 3.18 17.01 3.58L15.95 4.63C15.56 5.03 15.56 5.66 15.95 6.05C16.34 6.42 16.98 6.43 17.36 6.05L18.42 4.98ZM6.04 17.36C6.44 16.96 6.44 16.33 6.04 15.95C5.65 15.56 5.02 15.56 4.64 15.95L3.58 17.01C3.19 17.39 3.19 18.04 3.58 18.41C3.96 18.79 4.6 18.81 4.98 18.41L6.04 17.36Z" fill="#000000" fill-opacity="1.000000" fill-rule="nonzero"/>
</svg>
