<svg width="9.000000" height="9.000000" viewBox="0 0 9 9" fill="#555555" xmlns="http://www.w3.org/2000/svg" xmlns:xlink="http://www.w3.org/1999/xlink">
	<desc>
			Created with Pixso.
	</desc>
	<defs/>
	<path id="Union" d="M-0.217041 -0.314453C-0.512207 -0.0157471 -0.512207 0.453674 -0.217041 0.75238L2.94482 3.95117L-0.310791 7.24487C-0.605957 7.54358 -0.605957 8.013 -0.310791 8.31171C-0.015625 8.61041 0.448486 8.61041 0.743652 8.31171L3.99951 5.01801L7.25513 8.31158C7.55029 8.61029 8.0144 8.61029 8.30957 8.31158C8.60474 8.01288 8.60474 7.54352 8.30957 7.24481L5.05396 3.95117L8.21582 0.752441C8.51099 0.453796 8.51099 -0.015625 8.21582 -0.314331C7.92041 -0.613037 7.45654 -0.613037 7.16113 -0.314331L3.99951 2.8844L0.837402 -0.314453C0.542236 -0.613098 0.0783691 -0.613098 -0.217041 -0.314453Z" clip-rule="evenodd"  />
</svg>
