<svg width="13.000000" height="12.000000" viewBox="0 0 13 12" fill="#FFFFFF" xmlns="http://www.w3.org/2000/svg" xmlns:xlink="http://www.w3.org/1999/xlink">
	<desc>
			Created with Pixso.
	</desc>
	<defs/>
	<path id="Vector" d="M1.71 5.49L6.8 0.62C7.16 0.27 7.16 -0.3 6.8 -0.65C6.43 -1 5.84 -1 5.47 -0.65L-0.28 4.86C-0.46 5.04 -0.55 5.27 -0.55 5.49C-0.55 5.72 -0.46 5.95 -0.28 6.13L5.47 11.64C5.84 11.99 6.43 11.99 6.8 11.64C7.16 11.29 7.16 10.72 6.8 10.37L1.71 5.49ZM12.63 10.37C12.99 10.72 12.99 11.29 12.63 11.64C12.26 11.99 11.67 11.99 11.3 11.64L5.55 6.13C5.37 5.95 5.28 5.72 5.28 5.49C5.28 5.27 5.37 5.04 5.55 4.86L11.3 -0.65C11.67 -1 12.26 -1 12.63 -0.65C12.99 -0.3 12.99 0.27 12.63 0.62L7.54 5.49L12.63 10.37Z"  />
</svg>
